<svg xmlns="http://www.w3.org/2000/svg" xmlns:xlink="http://www.w3.org/1999/xlink" width="300" zoomAndPan="magnify" viewBox="0 0 224.87999 68.999997" height="92" preserveAspectRatio="xMidYMid meet" version="1.0"><defs><g/><clipPath id="07514f1b1a"><path d="M 0 0.0195312 L 223.195312 0.0195312 L 223.195312 68.980469 L 0 68.980469 Z M 0 0.0195312 " clip-rule="nonzero"/></clipPath><clipPath id="4461b58f09"><path d="M 17.6875 6.5 L 139.484375 6.5 L 139.484375 62.5 L 17.6875 62.5 Z M 17.6875 6.5 " clip-rule="nonzero"/></clipPath><clipPath id="15b7ffbf40"><path d="M 142.699219 36.859375 L 164.304688 36.859375 L 164.304688 55.734375 L 142.699219 55.734375 Z M 142.699219 36.859375 " clip-rule="nonzero"/></clipPath><clipPath id="5585c108dc"><path d="M 153.515625 36.859375 L 142.730469 55.734375 L 164.304688 55.734375 Z M 153.515625 36.859375 " clip-rule="nonzero"/></clipPath></defs><g clip-path="url(#07514f1b1a)"><path stroke-linecap="butt" transform="matrix(0.7496, 0, 0, 0.7496, 0, 0.0187224)" fill="none" stroke-linejoin="miter" d="M 0 0.001079 L 297.752577 0.001079 L 297.752577 91.998069 L 0 91.998069 Z M 0 0.001079 " stroke="#000000" stroke-width="6" stroke-opacity="1" stroke-miterlimit="4"/></g><g clip-path="url(#4461b58f09)"><path fill="#000000" d="M 17.6875 6.5 L 139.535156 6.5 L 139.535156 62.5 L 17.6875 62.5 Z M 17.6875 6.5 " fill-opacity="1" fill-rule="nonzero"/></g><g clip-path="url(#15b7ffbf40)"><g clip-path="url(#5585c108dc)"><path fill="#222222" d="M 164.304688 55.734375 L 142.699219 55.734375 L 142.699219 36.859375 L 164.304688 36.859375 Z M 164.304688 55.734375 " fill-opacity="1" fill-rule="nonzero"/></g></g><g fill="#ffffff" fill-opacity="1"><g transform="translate(122.890281, 54.916379)"><g><path d="M 1.984375 0 L 1.984375 -18.8125 L 14.890625 -18.8125 L 14.890625 -14.4375 L 7.359375 -14.4375 L 7.359375 -11.6875 L 14.15625 -11.6875 L 14.15625 -7.34375 L 7.359375 -7.34375 L 7.359375 -4.4375 L 15.1875 -4.4375 L 15.1875 0 Z M 1.984375 0 "/></g></g></g><g fill="#ffffff" fill-opacity="1"><g transform="translate(143.130575, 54.916379)"><g/></g></g><g fill="#ffffff" fill-opacity="1"><g transform="translate(153.180546, 54.916379)"><g/></g></g><g fill="#000000" fill-opacity="1"><g transform="translate(163.236308, 54.916379)"><g><path d="M 8.734375 0.40625 C 6.296875 0.40625 4.382812 -0.171875 3 -1.328125 C 1.625 -2.484375 0.9375 -4.070312 0.9375 -6.09375 L 6.1875 -6.09375 C 6.1875 -5.382812 6.40625 -4.828125 6.84375 -4.421875 C 7.28125 -4.015625 7.882812 -3.8125 8.65625 -3.8125 C 9.3125 -3.8125 9.828125 -3.941406 10.203125 -4.203125 C 10.585938 -4.460938 10.78125 -4.828125 10.78125 -5.296875 C 10.78125 -6.335938 9.648438 -7.082031 7.390625 -7.53125 C 3.179688 -8.332031 1.078125 -10.3125 1.078125 -13.46875 C 1.078125 -15.238281 1.71875 -16.640625 3 -17.671875 C 4.28125 -18.703125 6.03125 -19.21875 8.25 -19.21875 C 9.789062 -19.21875 11.128906 -18.957031 12.265625 -18.4375 C 13.398438 -17.914062 14.273438 -17.175781 14.890625 -16.21875 C 15.515625 -15.257812 15.828125 -14.132812 15.828125 -12.84375 L 10.71875 -12.84375 C 10.71875 -13.5625 10.507812 -14.109375 10.09375 -14.484375 C 9.6875 -14.859375 9.109375 -15.046875 8.359375 -15.046875 C 7.734375 -15.046875 7.226562 -14.914062 6.84375 -14.65625 C 6.46875 -14.394531 6.28125 -14.035156 6.28125 -13.578125 C 6.28125 -13.085938 6.53125 -12.679688 7.03125 -12.359375 C 7.539062 -12.035156 8.394531 -11.738281 9.59375 -11.46875 C 11.882812 -10.96875 13.550781 -10.238281 14.59375 -9.28125 C 15.644531 -8.320312 16.171875 -7.066406 16.171875 -5.515625 C 16.171875 -3.660156 15.515625 -2.207031 14.203125 -1.15625 C 12.898438 -0.113281 11.078125 0.40625 8.734375 0.40625 Z M 8.734375 0.40625 "/></g></g></g><g fill="#000000" fill-opacity="1"><g transform="translate(184.24818, 54.916379)"><g><path d="M 1.984375 0 L 1.984375 -18.8125 L 14.890625 -18.8125 L 14.890625 -14.4375 L 7.359375 -14.4375 L 7.359375 -11.6875 L 14.15625 -11.6875 L 14.15625 -7.34375 L 7.359375 -7.34375 L 7.359375 -4.4375 L 15.1875 -4.4375 L 15.1875 0 Z M 1.984375 0 "/></g></g></g><g fill="#ffffff" fill-opacity="1"><g transform="translate(61.281476, 46.94041)"><g><path d="M 2.734375 0 L 2.734375 -18.8125 L 5.109375 -18.8125 L 5.109375 -2.25 L 14.25 -2.25 L 14.25 0 Z M 2.734375 0 "/></g></g></g><g fill="#ffffff" fill-opacity="1"><g transform="translate(78.396845, 46.94041)"><g><path d="M 2.734375 0 L 2.734375 -18.8125 L 5.109375 -18.8125 L 5.109375 0 Z M 2.734375 0 "/></g></g></g><g fill="#ffffff" fill-opacity="1"><g transform="translate(88.284877, 46.94041)"><g><path d="M 9 0.34375 C 7.5 0.34375 6.195312 0.0859375 5.09375 -0.421875 C 3.988281 -0.929688 3.132812 -1.644531 2.53125 -2.5625 C 1.9375 -3.488281 1.628906 -4.5625 1.609375 -5.78125 L 3.984375 -5.78125 C 4.015625 -4.582031 4.488281 -3.632812 5.40625 -2.9375 C 6.332031 -2.25 7.53125 -1.90625 9 -1.90625 C 10.320312 -1.90625 11.375 -2.164062 12.15625 -2.6875 C 12.9375 -3.207031 13.328125 -3.929688 13.328125 -4.859375 C 13.328125 -5.742188 12.953125 -6.445312 12.203125 -6.96875 C 11.453125 -7.5 10.222656 -7.960938 8.515625 -8.359375 C 6.203125 -8.910156 4.507812 -9.617188 3.4375 -10.484375 C 2.363281 -11.359375 1.828125 -12.519531 1.828125 -13.96875 C 1.828125 -15.5625 2.429688 -16.820312 3.640625 -17.75 C 4.847656 -18.6875 6.484375 -19.15625 8.546875 -19.15625 C 10.660156 -19.15625 12.332031 -18.625 13.5625 -17.5625 C 14.789062 -16.507812 15.410156 -15.070312 15.421875 -13.25 L 13.09375 -13.25 C 13.070312 -14.375 12.648438 -15.265625 11.828125 -15.921875 C 11.015625 -16.578125 9.921875 -16.90625 8.546875 -16.90625 C 7.203125 -16.90625 6.148438 -16.640625 5.390625 -16.109375 C 4.628906 -15.578125 4.25 -14.863281 4.25 -13.96875 C 4.25 -13.195312 4.601562 -12.546875 5.3125 -12.015625 C 6.019531 -11.492188 7.285156 -11.007812 9.109375 -10.5625 C 11.515625 -9.96875 13.226562 -9.226562 14.25 -8.34375 C 15.269531 -7.457031 15.78125 -6.320312 15.78125 -4.9375 C 15.78125 -3.3125 15.164062 -2.023438 13.9375 -1.078125 C 12.707031 -0.128906 11.0625 0.34375 9 0.34375 Z M 9 0.34375 "/></g></g></g><g fill="#ffffff" fill-opacity="1"><g transform="translate(107.710843, 46.94041)"><g><path d="M 7.28125 0 L 7.28125 -16.5625 L 0.90625 -16.5625 L 0.90625 -18.8125 L 15.984375 -18.8125 L 15.984375 -16.5625 L 9.640625 -16.5625 L 9.640625 0 Z M 7.28125 0 "/></g></g></g></svg>